<?xml version="1.0" standalone="no"?><!DOCTYPE svg PUBLIC "-//W3C//DTD SVG 1.1//EN" "http://www.w3.org/Graphics/SVG/1.1/DTD/svg11.dtd"><svg t="1627828427920" class="icon" viewBox="0 0 1024 1024" version="1.1" xmlns="http://www.w3.org/2000/svg" p-id="2168" xmlns:xlink="http://www.w3.org/1999/xlink" width="200" height="200"><defs><style type="text/css"></style></defs><path d="M529.06581 45.565872a77.649134 77.649134 0 1 0 77.649134 77.649134 77.649134 77.649134 0 0 0-77.649134-77.649134zM659.788352 10.75226a45.906488 45.906488 0 1 0 45.906488 45.73649 45.906488 45.906488 0 0 0-45.906488-45.73649zM767.986145 0.00038a39.251562 39.251562 0 1 0 39.079564 39.251562A39.251562 39.251562 0 0 0 767.987145 0.00038z m98.298904 11.775869a32.766635 32.766635 0 1 0 32.595636 32.595636 32.766635 32.766635 0 0 0-32.595636-32.595636z m67.921242 41.639535a24.745724 24.745724 0 1 0 24.745724 24.745724 24.745724 24.745724 0 0 0-24.745724-24.744724z m45.394494 453.095947c-20.478772 72.188195-60.924321 114.852719-119.459668 126.798586a109.049784 109.049784 0 0 1-81.916086-18.942789 66.556258 66.556258 0 0 1-22.184753-56.146373 153.591287 153.591287 0 0 1 3.924957-25.257719c5.631937-26.792701 13.48185-101.369869-17.06581-142.328412a163.831173 163.831173 0 0 0-38.909566-32.253641c-43.00552-29.182675-91.642978-62.461303-71.335205-140.109437 3.242964-7.849912 35.667602-82.087085 143.864396-92.496969 79.185117-8.019911 179.190002 14.164842 209.907659 162.636187 8.533905 42.323528 11.775869 153.592287-6.825924 218.100567zM472.407442 396.607957A77.649134 77.649134 0 1 0 559.954465 462.995217a77.649134 77.649134 0 0 0-87.547023-66.38626zM338.611934 379.884143a45.906488 45.906488 0 1 0 51.197429 39.079565 45.906488 45.906488 0 0 0-51.197429-39.079565z m-108.025796 4.095955a39.080564 39.080564 0 1 0 44.199507 34.130619 39.251562 39.251562 0 0 0-44.199507-34.130619z m-96.250926 25.598714a32.766635 32.766635 0 1 0 36.349594 27.304696 32.936633 32.936633 0 0 0-36.349594-27.304696z m-61.778311 50.002443a24.745724 24.745724 0 1 0 27.988688 21.160764 24.745724 24.745724 0 0 0-27.988688-21.160764z m16.895811 455.142924c-27.475694-61.436315-39.251562-172.19308-36.520592-215.027602 9.385895-151.54431 106.318814-187.723906 186.015925-190.453876 108.367791-4.437951 150.861318 64.679279 154.957272 72.017197 30.717657 74.235172-12.969855 113.657732-51.197429 148.642342a157.516243 157.516243 0 0 0-35.496604 38.056575c-24.403728 44.712501-6.484928 117.582689 2.900968 143.352402a153.591287 153.591287 0 0 1 7.337918 24.403728 66.044263 66.044263 0 0 1-14.505839 58.535347 107.513801 107.513801 0 0 1-77.307137 29.694669c-60.242328-3.754958-105.978818-40.445549-136.526478-109.049784z" p-id="2169" fill="#fafa9b"></path></svg>