<?xml version="1.0" standalone="no"?><!DOCTYPE svg PUBLIC "-//W3C//DTD SVG 1.1//EN" "http://www.w3.org/Graphics/SVG/1.1/DTD/svg11.dtd"><svg t="1627828271021" class="icon" viewBox="0 0 1024 1024" version="1.1" xmlns="http://www.w3.org/2000/svg" p-id="744" data-spm-anchor-id="a313x.7781069.0.i8" xmlns:xlink="http://www.w3.org/1999/xlink" width="200" height="200"><defs><style type="text/css"></style></defs><path d="M728.177778 352.711111l51.2-28.444444c-51.2-73.955556-142.222222-130.844444-238.933334-136.533334v56.888889c79.644444 5.688889 142.222222 51.2 187.733334 108.088889zM807.822222 648.533333c17.066667-39.822222 28.444444-85.333333 28.444445-136.533333s-11.377778-96.711111-28.444445-136.533333l-51.2 28.444444c17.066667 34.133333 22.755556 68.266667 22.755556 108.088889s-11.377778 73.955556-22.755556 108.088889l51.2 28.444444zM244.622222 324.266667l51.2 28.444444c45.511111-56.888889 108.088889-102.4 187.733334-108.088889v-56.888889c-96.711111 5.688889-182.044444 56.888889-238.933334 136.533334zM216.177778 375.466667c-17.066667 39.822222-28.444444 85.333333-28.444445 136.533333s11.377778 96.711111 28.444445 136.533333l51.2-28.444444c-17.066667-34.133333-22.755556-73.955556-22.755556-108.088889s11.377778-73.955556 22.755556-108.088889l-51.2-28.444444zM779.377778 694.044444l-51.2-28.444444c-45.511111 56.888889-108.088889 102.4-187.733334 108.088889v56.888889c96.711111-5.688889 182.044444-56.888889 238.933334-136.533334zM295.822222 665.6l-51.2 28.444444c51.2 73.955556 142.222222 130.844444 238.933334 136.533334v-56.888889c-79.644444-5.688889-142.222222-45.511111-187.733334-108.088889zM358.4 386.844444l51.2 28.444445c17.066667-17.066667 45.511111-34.133333 73.955556-39.822222v-56.888889c-51.2 5.688889-91.022222 34.133333-125.155556 68.266666zM694.044444 580.266667c11.377778-22.755556 11.377778-45.511111 11.377778-73.955556s-5.688889-51.2-11.377778-73.955555l-51.2 28.444444c5.688889 11.377778 5.688889 28.444444 5.688889 39.822222s-5.688889 28.444444-5.688889 39.822222l51.2 39.822223zM329.955556 438.044444c-5.688889 22.755556-11.377778 45.511111-11.377778 73.955556 0 22.755556 5.688889 51.2 11.377778 73.955556l51.2-28.444445c-5.688889-17.066667-5.688889-34.133333-5.688889-45.511111s5.688889-28.444444 5.688889-39.822222l-51.2-34.133334zM665.6 386.844444c-28.444444-39.822222-73.955556-62.577778-125.155556-73.955555v56.888889c28.444444 5.688889 56.888889 22.755556 73.955556 45.511111l51.2-28.444445zM665.6 631.466667l-51.2-28.444445c-17.066667 22.755556-45.511111 39.822222-73.955556 45.511111v56.888889c51.2-11.377778 91.022222-34.133333 125.155556-73.955555zM358.4 631.466667c28.444444 39.822222 73.955556 62.577778 125.155556 73.955555v-56.888889c-28.444444-5.688889-56.888889-22.755556-73.955556-45.511111l-51.2 28.444445z" p-id="745" fill="#1296db" data-spm-anchor-id="a313x.7781069.0.i0" class=""></path><path d="M728.177778 153.6m-62.577778 0a62.577778 62.577778 0 1 0 125.155556 0 62.577778 62.577778 0 1 0-125.155556 0Z" p-id="746" fill="#dbdbdb" data-spm-anchor-id="a313x.7781069.0.i1" class="selected"></path><path d="M307.2 147.911111m-62.577778 0a62.577778 62.577778 0 1 0 125.155556 0 62.577778 62.577778 0 1 0-125.155556 0Z" p-id="747" fill="#dbdbdb" data-spm-anchor-id="a313x.7781069.0.i2" class="selected"></path><path d="M96.711111 506.311111m-62.577778 0a62.577778 62.577778 0 1 0 125.155556 0 62.577778 62.577778 0 1 0-125.155556 0Z" p-id="748" fill="#dbdbdb" data-spm-anchor-id="a313x.7781069.0.i3" class=""></path><path d="M295.822222 870.4m-62.577778 0a62.577778 62.577778 0 1 0 125.155556 0 62.577778 62.577778 0 1 0-125.155556 0Z" p-id="749" fill="#dbdbdb" data-spm-anchor-id="a313x.7781069.0.i4" class=""></path><path d="M716.8 876.088889m-62.577778 0a62.577778 62.577778 0 1 0 125.155556 0 62.577778 62.577778 0 1 0-125.155556 0Z" p-id="750" fill="#dbdbdb" data-spm-anchor-id="a313x.7781069.0.i5" class=""></path><path d="M927.288889 517.688889m-62.577778 0a62.577778 62.577778 0 1 0 125.155556 0 62.577778 62.577778 0 1 0-125.155556 0Z" p-id="751" fill="#dbdbdb" data-spm-anchor-id="a313x.7781069.0.i6" class="selected"></path></svg>